<svg width="1088" height="1261" viewBox="0 0 1088 1261" version="1.1" xmlns="http://www.w3.org/2000/svg" xmlns:xlink="http://www.w3.org/1999/xlink">
<g id="Canvas" fill="none">
<g id="Group">
<g id="mjr">
<path d="M 206.156 284L 167.906 284L 167.906 188.375C 167.906 185.75 167.391 183.266 166.359 180.922C 165.422 178.578 164.062 176.516 162.281 174.734C 160.5 172.953 158.438 171.594 156.094 170.656C 153.75 169.625 151.266 169.109 148.641 169.109C 146.016 169.109 143.531 169.625 141.188 170.656C 138.938 171.594 136.922 172.953 135.141 174.734C 133.453 176.516 132.094 178.578 131.062 180.922C 130.125 183.266 129.656 185.75 129.656 188.375L 129.656 284L 91.2656 284L 91.2656 188.375C 91.2656 185.75 90.75 183.266 89.7188 180.922C 88.7812 178.578 87.4219 176.516 85.6406 174.734C 83.8594 172.953 81.7969 171.594 79.4531 170.656C 77.1094 169.625 74.625 169.109 72 169.109C 69.375 169.109 66.8906 169.625 64.5469 170.656C 62.2969 171.594 60.2812 172.953 58.5 174.734C 56.8125 176.516 55.4531 178.578 54.4219 180.922C 53.4844 183.266 53.0156 185.75 53.0156 188.375L 53.0156 284L 14.625 284L 14.625 133.391L 23.9062 133.391L 34.3125 144.922C 39.6562 140.422 45.5156 136.953 51.8906 134.516C 58.3594 131.984 65.0625 130.719 72 130.719C 79.0312 130.719 85.875 132.031 92.5312 134.656C 99.2812 137.281 105.188 141.828 110.25 148.297C 112.594 145.109 115.266 142.391 118.266 140.141C 121.266 137.891 124.406 136.062 127.688 134.656C 131.062 133.25 134.531 132.266 138.094 131.703C 141.656 131.047 145.172 130.719 148.641 130.719C 156.609 130.719 164.062 132.219 171 135.219C 178.031 138.219 184.125 142.344 189.281 147.594C 194.531 152.75 198.656 158.844 201.656 165.875C 204.656 172.906 206.156 180.406 206.156 188.375L 206.156 284ZM 280.125 92.4688C 280.125 96.0312 279.422 99.3594 278.016 102.453C 276.703 105.547 274.875 108.266 272.531 110.609C 270.281 112.859 267.562 114.688 264.375 116.094C 261.281 117.406 258 118.062 254.531 118.062C 250.875 118.062 247.453 117.406 244.266 116.094C 241.172 114.688 238.453 112.859 236.109 110.609C 233.766 108.266 231.891 105.547 230.484 102.453C 229.172 99.3594 228.516 96.0312 228.516 92.4688C 228.516 89 229.172 85.7188 230.484 82.625C 231.891 79.4375 233.766 76.7188 236.109 74.4688C 238.453 72.125 241.172 70.2969 244.266 68.9844C 247.453 67.5781 250.875 66.875 254.531 66.875C 258 66.875 261.281 67.5781 264.375 68.9844C 267.562 70.2969 270.281 72.125 272.531 74.4688C 274.875 76.7188 276.703 79.4375 278.016 82.625C 279.422 85.7188 280.125 89 280.125 92.4688ZM 177.047 341.375L 177.047 302.703L 198.281 302.984C 203.438 302.984 208.219 301.906 212.625 299.75C 217.031 297.688 220.828 294.875 224.016 291.312C 227.297 287.844 229.875 283.812 231.75 279.219C 233.625 274.625 234.562 269.797 234.562 264.734L 234.562 133.391L 273.797 133.391L 273.797 264.734L 273.516 264.734C 273.422 271.766 272.438 278.562 270.562 285.125C 268.781 291.688 266.203 297.781 262.828 303.406C 259.453 309.125 255.422 314.281 250.734 318.875C 246.047 323.562 240.844 327.547 235.125 330.828C 229.5 334.203 223.453 336.781 216.984 338.562C 210.422 340.438 203.625 341.375 196.594 341.375L 177.047 341.375ZM 341.297 284L 302.906 284L 302.906 133.391L 312.188 133.391L 324.844 151.25C 331.031 145.625 338.062 141.312 345.938 138.312C 353.812 135.219 361.969 133.672 370.406 133.672L 404.297 133.672L 404.297 171.922L 370.406 171.922C 366.375 171.922 362.578 172.672 359.016 174.172C 355.453 175.672 352.359 177.734 349.734 180.359C 347.109 182.984 345.047 186.078 343.547 189.641C 342.047 193.203 341.297 197 341.297 201.031L 341.297 284Z" transform="translate(518 621)" fill="#F15EB4"/>
</g>
<g id="mjr_2">
<path d="M 133.031 267L 125.438 267L 125.438 164.766C 125.344 149.484 121.969 138.141 115.312 130.734C 108.75 123.234 98.25 119.484 83.8125 119.484C 67.125 119.484 53.4844 126.844 42.8906 141.562C 36.6094 150.375 32.4375 160.125 30.375 170.812L 30.375 267L 22.6406 267L 22.6406 114.844L 30.375 114.844L 30.375 150.844C 35.5312 138.469 42.8906 128.906 52.4531 122.156C 62.0156 115.406 72.6094 112.031 84.2344 112.031C 96.9844 112.031 107.391 114.844 115.453 120.469C 123.609 126.094 128.953 135.281 131.484 148.031C 135.984 137.062 143.297 128.344 153.422 121.875C 163.547 115.312 174.891 112.031 187.453 112.031C 203.859 112.031 216.047 116.672 224.016 125.953C 232.078 135.234 236.156 149.156 236.25 167.719L 236.25 267L 228.656 267L 228.656 168.281C 228.656 151.594 225.281 139.266 218.531 131.297C 211.875 123.234 201.375 119.297 187.031 119.484C 168.562 119.766 153.938 127.125 143.156 141.562C 136.969 149.906 133.594 157.969 133.031 165.75L 133.031 267ZM 291.938 114.844L 291.938 285.141C 291.938 299.203 288.422 309.938 281.391 317.344C 274.359 324.75 264.516 328.453 251.859 328.453C 247.266 328.453 242.672 327.516 238.078 325.641L 238.5 318.328C 243 320.016 247.453 320.859 251.859 320.859C 262.359 320.859 270.375 317.719 275.906 311.438C 281.531 305.25 284.344 296.484 284.344 285.141L 284.344 114.844L 291.938 114.844ZM 281.109 67.3125C 281.109 65.1563 281.859 63.3281 283.359 61.8281C 284.859 60.2344 286.688 59.4375 288.844 59.4375C 291 59.4375 292.828 60.2344 294.328 61.8281C 295.922 63.3281 296.719 65.1563 296.719 67.3125C 296.719 69.4687 295.922 71.2969 294.328 72.7969C 292.828 74.2969 291 75.0469 288.844 75.0469C 286.688 75.0469 284.859 74.2969 283.359 72.7969C 281.859 71.2969 281.109 69.4687 281.109 67.3125ZM 412.172 120.328L 402.328 119.484C 389.391 119.484 378.562 123.703 369.844 132.141C 361.125 140.484 355.406 152.203 352.688 167.297L 352.688 267L 345.094 267L 345.094 114.844L 352.688 114.844L 352.688 146.484C 356.812 135.891 363 127.5 371.25 121.312C 379.5 115.125 389.859 112.031 402.328 112.031C 406.734 112.031 410.297 112.547 413.016 113.578L 412.172 120.328Z" transform="translate(45 621)" fill="#F15EB4"/>
</g>
<g id="mjr_3">
<path d="M 123.188 214L 123.188 112.609C 123.188 108.203 123 104.594 122.625 101.781C 122.344 98.9688 121.828 96.7656 121.078 95.1719C 120.422 93.4844 119.531 92.3125 118.406 91.6562C 117.375 91 116.062 90.6719 114.469 90.6719C 112.594 90.6719 110.859 91.2344 109.266 92.3594C 107.672 93.4844 105.938 95.3125 104.062 97.8438C 102.281 100.375 100.266 103.75 98.0156 107.969C 95.8594 112.094 93.2812 117.203 90.2812 123.297L 90.2812 214L 67.9219 214L 67.9219 115.281C 67.9219 110.125 67.7344 105.953 67.3594 102.766C 67.0781 99.5781 66.5625 97.0938 65.8125 95.3125C 65.1562 93.5312 64.2656 92.3125 63.1406 91.6562C 62.0156 91 60.6562 90.6719 59.0625 90.6719C 57.375 90.6719 55.7812 91.1406 54.2812 92.0781C 52.7812 93.0156 51.0938 94.7031 49.2188 97.1406C 47.4375 99.5781 45.4219 102.906 43.1719 107.125C 40.9219 111.344 38.25 116.734 35.1562 123.297L 35.1562 214L 12.6562 214L 12.6562 72.8125L 31.3594 72.8125L 32.4844 99.6719C 34.9219 94.3281 37.2656 89.7812 39.5156 86.0312C 41.8594 82.2812 44.25 79.2812 46.6875 77.0312C 49.125 74.6875 51.7031 73 54.4219 71.9688C 57.2344 70.8438 60.3281 70.2812 63.7031 70.2812C 71.2969 70.2812 77.0625 72.7656 81 77.7344C 84.9375 82.7031 86.9062 90.3906 86.9062 100.797C 89.1562 95.9219 91.3594 91.6094 93.5156 87.8594C 95.6719 84.0156 97.9688 80.8281 100.406 78.2969C 102.938 75.6719 105.703 73.7031 108.703 72.3906C 111.703 70.9844 115.172 70.2812 119.109 70.2812C 136.828 70.2812 145.688 83.9219 145.688 111.203L 145.688 214L 123.188 214ZM 276.469 72.8125L 276.469 211.469C 276.469 221.312 275.062 230.031 272.25 237.625C 269.438 245.312 265.406 251.781 260.156 257.031C 254.906 262.281 248.438 266.266 240.75 268.984C 233.156 271.703 224.578 273.062 215.016 273.062C 208.078 273.062 201.281 272.406 194.625 271.094C 188.062 269.875 182.109 268.141 176.766 265.891L 176.766 242.547C 179.672 244.047 182.766 245.406 186.047 246.625C 189.422 247.844 192.844 248.875 196.312 249.719C 199.875 250.562 203.438 251.172 207 251.547C 210.562 252.016 214.031 252.25 217.406 252.25C 228.094 252.25 236.484 248.875 242.578 242.125C 248.672 235.375 251.719 225.438 251.719 212.312L 251.719 93.0625L 182.531 93.0625L 182.531 72.8125L 276.469 72.8125ZM 261.703 13.6094C 264.422 13.6094 266.953 14.125 269.297 15.1562C 271.641 16.0938 273.656 17.4531 275.344 19.2344C 277.125 21.0156 278.484 23.0781 279.422 25.4219C 280.453 27.7656 280.969 30.25 280.969 32.875C 280.969 35.5937 280.453 38.125 279.422 40.4688C 278.484 42.7188 277.125 44.7344 275.344 46.5156C 273.656 48.2969 271.641 49.7031 269.297 50.7344C 266.953 51.6719 264.422 52.1406 261.703 52.1406C 258.984 52.1406 256.453 51.6719 254.109 50.7344C 251.766 49.7031 249.703 48.2969 247.922 46.5156C 246.234 44.7344 244.875 42.7188 243.844 40.4688C 242.906 38.125 242.438 35.5937 242.438 32.875C 242.438 30.25 242.906 27.7656 243.844 25.4219C 244.875 23.0781 246.234 21.0156 247.922 19.2344C 249.703 17.4531 251.766 16.0938 254.109 15.1562C 256.453 14.125 258.984 13.6094 261.703 13.6094ZM 344.953 72.8125L 367.312 72.8125L 368.016 98.8281C 376.359 88.7969 384.562 81.5312 392.625 77.0312C 400.781 72.5312 408.984 70.2812 417.234 70.2812C 431.859 70.2812 442.922 75.0156 450.422 84.4844C 458.016 93.9531 461.531 108.016 460.969 126.672L 436.219 126.672C 436.5 114.297 434.672 105.344 430.734 99.8125C 426.891 94.1875 421.219 91.375 413.719 91.375C 410.438 91.375 407.109 91.9844 403.734 93.2031C 400.453 94.3281 397.031 96.2031 393.469 98.8281C 390 101.359 386.297 104.641 382.359 108.672C 378.422 112.703 374.203 117.578 369.703 123.297L 369.703 214L 344.953 214L 344.953 72.8125Z" transform="translate(-12 283)" fill="#F15EB4"/>
</g>
<g id="mjr_4">
<path d="M 217.688 57.625C 218.438 58.1875 218.906 58.8438 219.094 59.5938C 219.281 60.3437 219.938 60.625 221.062 60.4375C 221.062 61.375 220.875 62.0312 220.5 62.4062C 220.125 62.7813 220.031 63.4375 220.219 64.375C 217.594 65.875 215.625 66.3438 214.312 65.7812C 213 64.6562 212.25 63.9063 212.062 63.5312C 212.062 62.9688 212.062 62.5 212.062 62.125C 212.25 60.8125 212.812 59.6875 213.75 58.75C 214.688 57.625 216 57.25 217.688 57.625ZM 37.4062 59.875C 37.5938 61.5625 37.5938 62.5937 37.4062 62.9688C 37.4062 63.3438 37.5938 63.7187 37.9688 64.0938C 37.9688 64.6562 37.7812 65.125 37.4062 65.5C 37.2188 65.6875 37.125 66.25 37.125 67.1875C 36.5625 67.5625 35.8125 67.75 34.875 67.75C 33.9375 67.75 33 67.9375 32.0625 68.3125C 31.125 67.375 30.4688 66.8125 30.0938 66.625C 29.9062 66.4375 29.625 65.9687 29.25 65.2188C 28.875 64.4688 28.6875 63.4375 28.6875 62.125C 30 61 31.0312 60.25 31.7812 59.875C 32.5312 59.3125 33.4688 59.0312 34.5938 59.0312L 37.4062 59.875ZM 56.5312 78.7188C 56.1562 79.0938 55.9688 79.6563 55.9688 80.4062C 56.1562 80.9688 56.25 81.7187 56.25 82.6562C 55.5 82.6562 54.9375 82.8437 54.5625 83.2188C 54.1875 83.5938 53.8125 83.9687 53.4375 84.3438C 52.3125 84.1563 51.1875 84.25 50.0625 84.625C 49.125 83.875 48.375 83.0313 47.8125 82.0938C 47.25 81.1562 47.1562 80.125 47.5312 79C 48.4688 77.6875 48.9375 76.9375 48.9375 76.75C 49.125 76.5625 49.4062 76.2813 49.7812 75.9062C 50.1562 75.5312 50.625 75.4375 51.1875 75.625C 51.9375 75.625 52.5938 75.625 53.1562 75.625C 53.7188 76.375 54.1875 77.0312 54.5625 77.5938C 54.9375 78.1562 55.5938 78.5313 56.5312 78.7188ZM 196.594 83.7812C 196.594 83.0313 196.594 82.2812 196.594 81.5312C 196.594 80.7813 196.5 80.2188 196.312 79.8438C 197.438 77.9688 198.375 76.8438 199.125 76.4688C 200.062 76.0937 201 76.0937 201.938 76.4688C 203.062 78.1562 203.812 79.375 204.188 80.125C 204.75 80.6875 204.844 81.1562 204.469 81.5312C 203.906 82.8437 203.344 83.6875 202.781 84.0625C 202.219 84.4375 201.75 84.625 201.375 84.625C 199.5 84.4375 198.281 84.3438 197.719 84.3438C 197.344 84.3438 196.969 84.1563 196.594 83.7812ZM 170.156 125.688C 170.156 123.813 170.062 122.5 169.875 121.75C 170.812 120.062 171.656 119.031 172.406 118.656C 173.344 118.094 174.375 118.094 175.5 118.656C 176.625 120.344 177.375 121.469 177.75 122.031C 178.312 122.594 178.406 123.062 178.031 123.438C 177.281 124.75 176.625 125.594 176.062 125.969C 175.688 126.344 175.312 126.531 174.938 126.531C 172.875 126.344 171.656 126.25 171.281 126.25C 170.906 126.25 170.531 126.062 170.156 125.688ZM 26.4375 89.9688C 27 89.5937 27.375 89.3125 27.5625 89.125C 27.9375 88.75 28.4062 88.375 28.9688 88C 30.4688 87.625 31.5 87.3437 32.0625 87.1562C 33.9375 88.2812 35.0625 89.0312 35.4375 89.4062C 35.8125 89.7813 36 90.4375 36 91.375C 35.25 92.875 34.7812 93.8125 34.5938 94.1875C 34.5938 94.5625 34.5 94.9375 34.3125 95.3125C 33.5625 95.3125 33 95.4063 32.625 95.5938C 32.25 95.7812 31.7812 95.875 31.2188 95.875C 30.2812 95.6875 29.4375 95.2187 28.6875 94.4688C 28.125 93.7188 27.4688 93.1563 26.7188 92.7812L 26.4375 89.9688ZM 215.438 90.8125C 217.688 89.3125 219.094 88.6563 219.656 88.8438C 220.219 89.0312 220.875 89.125 221.625 89.125C 222 89.875 222.375 90.5312 222.75 91.0938C 223.312 91.4688 223.781 91.9375 224.156 92.5L 223.031 95.5938C 221.344 97.0938 220.406 97.8438 220.219 97.8438C 219.844 98.0312 219.375 98.0312 218.812 97.8438C 218.25 97.4687 217.688 97.375 217.125 97.5625C 216.375 96.4375 215.812 95.6875 215.438 95.3125C 215.25 94.9375 215.156 94.2813 215.156 93.3438L 215.438 90.8125ZM 68.9062 98.125C 70.0312 100.938 70.7812 102.438 71.1562 102.625C 70.4062 104.5 69.75 105.625 69.1875 106C 68.8125 106.375 68.4375 106.656 68.0625 106.844C 67.5 107.031 66.9375 107.031 66.375 106.844C 65.8125 106.469 65.0625 106.281 64.125 106.281C 63.5625 105.344 63.1875 104.406 63 103.469C 63 102.344 62.8125 101.313 62.4375 100.375C 64.875 99.0625 66.2812 98.4062 66.6562 98.4062C 67.2188 98.4062 67.9688 98.3125 68.9062 98.125ZM 190.688 100.375C 190.5 103 190.125 104.594 189.562 105.156C 189.188 105.719 188.719 106.281 188.156 106.844C 185.906 107.219 184.688 107.312 184.5 107.125C 184.312 106.75 184.125 106.656 183.938 106.844C 183.562 105.719 183.094 104.781 182.531 104.031C 182.156 103.281 181.875 102.344 181.688 101.219C 182.625 100.844 183.281 100.375 183.656 99.8125C 184.031 99.0625 184.594 98.5 185.344 98.125C 186.469 98.5 187.5 98.7813 188.438 98.9688C 189.562 98.9688 190.312 99.4375 190.688 100.375ZM 215.719 126.812C 215.719 126.062 215.531 125.406 215.156 124.844C 214.969 124.281 214.875 123.719 214.875 123.156C 214.875 121.844 214.969 121.094 215.156 120.906C 215.531 120.719 215.531 120.438 215.156 120.062C 216.656 119.687 217.688 119.406 218.25 119.219C 219 118.844 219.844 118.844 220.781 119.219C 221.719 119.594 222.281 120.062 222.469 120.625C 222.844 121 223.219 121.469 223.594 122.031C 223.594 122.969 223.312 124 222.75 125.125C 222.375 126.438 221.625 127.188 220.5 127.375C 218.438 127.188 217.219 127.188 216.844 127.375C 216.656 127.375 216.281 127.188 215.719 126.812ZM 84.6562 118.375C 85.0312 119.125 85.4062 119.594 85.7812 119.781C 86.1562 119.969 86.4375 120.438 86.625 121.188C 86.8125 122.125 86.5312 123.25 85.7812 124.562C 85.4062 124.938 85.0312 125.406 84.6562 125.969C 84.4688 126.344 84 126.625 83.25 126.812C 81.5625 126.812 80.7188 126.719 80.7188 126.531C 80.7188 126.344 80.5312 126.156 80.1562 125.969C 78.4688 124.281 77.4375 123.438 77.0625 123.438C 77.25 122.875 77.5312 122.406 77.9062 122.031C 78.4688 121.656 78.5625 121 78.1875 120.062C 80.0625 118.75 81.375 118.281 82.125 118.656C 82.875 118.844 83.7188 118.75 84.6562 118.375ZM 36.2812 118.375C 36.4688 119.875 36.2812 121.094 35.7188 122.031C 35.1562 122.781 34.4062 123.344 33.4688 123.719C 32.5312 124.094 31.5 124.188 30.375 124C 29.4375 123.813 28.5938 123.344 27.8438 122.594C 28.0312 121.656 27.9375 121 27.5625 120.625C 27.1875 120.062 27 119.406 27 118.656C 28.3125 116.406 29.25 115.281 29.8125 115.281C 30.375 115.094 31.0312 115.094 31.7812 115.281C 32.7188 115.281 33.4688 115.469 34.0312 115.844C 34.7812 116.969 35.25 117.625 35.4375 117.812C 35.625 117.812 35.9062 118 36.2812 118.375ZM 161.156 150.438C 160.594 150.062 160.031 149.969 159.469 150.156C 158.906 150.344 158.438 150.438 158.062 150.438C 156.188 149.125 155.25 148.375 155.25 148.188C 155.25 148 155.156 147.719 154.969 147.344C 154.969 146.406 154.875 145.75 154.688 145.375C 154.5 144.812 154.5 144.344 154.688 143.969C 155.25 142.469 156.375 141.625 158.062 141.438C 159.75 141.25 161.344 141.625 162.844 142.562C 162.656 143.312 162.75 143.875 163.125 144.25C 163.5 144.625 163.688 145.094 163.688 145.656C 163.688 146.594 163.312 147.438 162.562 148.188C 162 148.75 161.531 149.5 161.156 150.438ZM 100.125 148.469C 99.75 148.844 99.2812 149.125 98.7188 149.312C 98.1562 149.5 97.6875 149.781 97.3125 150.156C 95.4375 149.969 94.0312 149.406 93.0938 148.469C 92.1562 147.344 91.875 146.031 92.25 144.531C 92.625 142.469 93.75 141.438 95.625 141.438C 97.6875 141.25 99.375 142 100.688 143.688C 100.688 145 100.5 146.594 100.125 148.469ZM 222.188 148.188C 223.125 152.688 222.562 155.406 220.5 156.344C 218.438 156.156 217.031 155.688 216.281 154.938C 215.531 154 214.875 153.344 214.312 152.969C 214.125 151.656 214.406 150.531 215.156 149.594C 216.094 148.656 217.031 147.812 217.969 147.062C 218.719 147.25 219.375 147.438 219.938 147.625C 220.5 147.812 221.25 148 222.188 148.188ZM 34.3125 144.531C 34.6875 146.406 35.3438 147.438 36.2812 147.625L 34.875 150.719C 33 152.031 31.6875 152.781 30.9375 152.969C 30.1875 152.969 29.3438 152.781 28.4062 152.406C 27.8438 151.844 27.4688 151.094 27.2812 150.156C 27.0938 149.031 26.8125 147.906 26.4375 146.781C 28.5 145.469 29.8125 144.625 30.375 144.25C 30.9375 143.875 31.5938 143.781 32.3438 143.969L 34.3125 144.531ZM 115.594 163.094C 116.906 165.156 117.562 166.469 117.562 167.031C 117.75 167.781 117.656 168.438 117.281 169C 116.906 169.562 116.531 170.219 116.156 170.969C 115.406 170.969 114.656 171.156 113.906 171.531C 113.344 171.719 112.5 171.625 111.375 171.25C 110.25 169.562 109.5 168.625 109.125 168.438C 108.938 168.062 108.844 167.594 108.844 167.031C 109.219 166.281 109.5 165.625 109.688 165.062C 110.062 164.5 110.344 163.938 110.531 163.375C 111.469 163 112.219 162.812 112.781 162.812C 113.344 162.812 114.281 162.906 115.594 163.094ZM 144.562 172.656C 143.812 172.281 142.969 172 142.031 171.812C 141.281 171.438 140.625 170.969 140.062 170.406C 139.875 169.844 139.688 169.281 139.5 168.719C 139.5 168.156 139.312 167.688 138.938 167.312C 139.312 166.938 139.594 166.469 139.781 165.906C 140.156 165.156 140.531 164.594 140.906 164.219C 142.594 163.094 143.438 162.625 143.438 162.812C 143.625 162.812 143.812 162.812 144 162.812C 146.062 163.75 147.094 164.594 147.094 165.344C 147.281 165.906 147.656 166.281 148.219 166.469C 148.219 167.219 148.312 167.875 148.5 168.438C 148.688 168.812 148.594 169.375 148.219 170.125C 147.844 170.688 147.188 171.062 146.25 171.25C 145.5 171.438 144.938 171.906 144.562 172.656ZM 220.219 184.469C 219.656 184.656 219.094 184.844 218.531 185.031C 218.156 185.219 217.688 185.219 217.125 185.031C 216.375 185.031 215.812 184.844 215.438 184.469C 215.25 183.906 214.875 183.625 214.312 183.625C 213.938 181.938 213.75 181.094 213.75 181.094C 213.938 180.906 214.031 180.625 214.031 180.25C 214.781 178.188 215.062 177.062 214.875 176.875C 214.875 176.688 215.062 176.5 215.438 176.312C 216.375 176.312 217.219 176.219 217.969 176.031C 218.719 175.844 219.375 175.844 219.938 176.031C 221.062 177.344 221.812 178.281 222.188 178.844C 222.562 179.406 222.75 179.969 222.75 180.531C 222.562 181.469 222.188 182.219 221.625 182.781C 221.062 183.156 220.594 183.719 220.219 184.469ZM 28.125 181.656C 27.5625 181.094 27.1875 180.25 27 179.125C 26.8125 177.812 26.9062 176.594 27.2812 175.469C 28.0312 175.094 28.6875 174.719 29.25 174.344C 29.8125 173.781 30.5625 173.5 31.5 173.5C 33.75 173.312 35.1562 174.906 35.7188 178.281C 34.2188 180.906 32.9062 182.219 31.7812 182.219C 30.6562 182.031 29.4375 181.844 28.125 181.656ZM 126.562 185.875C 126.75 185.5 127.312 185.406 128.25 185.594C 129.188 185.781 129.844 186.062 130.219 186.438C 131.719 188.688 132.094 190.75 131.344 192.625C 130.219 194.125 129.281 194.969 128.531 195.156C 127.781 195.156 127.219 194.688 126.844 193.75C 125.156 193 124.125 192.344 123.75 191.781C 123.375 191.219 123.281 190.469 123.469 189.531C 123.469 188.594 123.844 187.938 124.594 187.562C 125.344 187 126 186.438 126.562 185.875ZM 219.656 204.156C 220.594 205.469 221.344 206.312 221.906 206.688C 222.656 207.062 223.031 207.531 223.031 208.094C 223.031 209.031 222.656 209.781 221.906 210.344C 221.156 210.719 220.594 211.375 220.219 212.312C 219.469 212.312 218.719 212.312 217.969 212.312C 217.219 212.312 216.562 212.219 216 212.031C 214.875 209.969 214.125 208.844 213.75 208.656C 213.562 208.469 213.375 208.188 213.188 207.812C 213.375 206.5 213.938 205.562 214.875 205C 215.812 204.25 216.844 204.25 217.969 205L 219.656 204.156ZM 35.1562 205.562C 35.3438 208 34.5938 209.594 32.9062 210.344C 31.4062 211.094 29.7188 211 27.8438 210.062C 27.4688 209.688 27.1875 209.125 27 208.375C 27 207.625 26.625 207.156 25.875 206.969C 26.25 206.031 26.7188 205.281 27.2812 204.719C 27.8438 203.969 28.4062 203.219 28.9688 202.469L 32.3438 202.469C 33.0938 202.844 33.5625 203.406 33.75 204.156C 34.125 204.719 34.5938 205.188 35.1562 205.562ZM 223.031 235.938C 222.469 237.062 222 237.812 221.625 238.188C 221.25 238.562 220.969 239.125 220.781 239.875C 217.594 240.812 215.438 240.812 214.312 239.875C 214.125 239.125 214.031 238.375 214.031 237.625C 214.031 236.688 213.844 235.938 213.469 235.375C 215.156 233.688 216.188 232.75 216.562 232.562C 217.125 232.375 218.062 232.375 219.375 232.562C 219.938 233.125 220.406 233.781 220.781 234.531C 221.344 235.094 222.094 235.562 223.031 235.938ZM 35.4375 233.969C 34.875 235.281 34.5938 236.219 34.5938 236.781C 34.5938 237.344 34.4062 237.812 34.0312 238.188C 33.8438 238.562 33.375 238.938 32.625 239.312C 32.0625 239.688 31.5 239.969 30.9375 240.156C 29.8125 240.156 28.9688 239.875 28.4062 239.312C 27.8438 238.75 27.0938 238.188 26.1562 237.625C 26.1562 235.75 26.4375 234.531 27 233.969C 29.4375 232.469 30.75 231.719 30.9375 231.719C 31.3125 231.531 31.9688 231.531 32.9062 231.719C 33.0938 232.281 33.4688 232.75 34.0312 233.125C 34.5938 233.312 35.0625 233.594 35.4375 233.969ZM 32.3438 268.562C 30.6562 268.938 29.4375 268.844 28.6875 268.281C 28.125 267.719 27.375 267.156 26.4375 266.594C 26.625 265.844 26.625 265.188 26.4375 264.625C 26.25 264.062 26.25 263.5 26.4375 262.938C 27.5625 261.438 28.0312 260.594 27.8438 260.406C 27.8438 260.031 28.0312 259.844 28.4062 259.844C 30.8438 259.281 32.9062 259.656 34.5938 260.969C 35.3438 264.156 34.5938 266.688 32.3438 268.562ZM 218.531 270.25C 217.594 269.875 216.844 269.5 216.281 269.125C 215.719 268.75 215.156 268.375 214.594 268C 214.406 266.875 214.312 265.938 214.312 265.188C 214.5 264.438 214.5 263.594 214.312 262.656C 215.25 262.656 216 262.375 216.562 261.812C 217.125 261.25 217.875 260.875 218.812 260.688C 219.562 261.625 220.406 262.375 221.344 262.938C 222.281 263.312 222.656 264.344 222.469 266.031C 222.094 267.531 221.531 268.469 220.781 268.844C 220.031 269.219 219.281 269.688 218.531 270.25ZM 373.5 59.3125C 374.812 60.8125 375.281 61.75 374.906 62.125C 374.719 62.3125 374.906 62.5937 375.469 62.9688C 374.531 63.9063 373.969 64.5625 373.781 64.9375C 373.594 65.3125 373.219 65.5938 372.656 65.7812C 371.906 65.9687 371.25 65.9687 370.688 65.7812C 370.125 65.4062 369.375 65.2188 368.438 65.2188C 367.312 63.3438 366.844 62.2188 367.031 61.8438C 367.219 61.4687 367.125 61.0938 366.75 60.7188L 369.562 58.1875C 371.438 57.625 372.469 57.625 372.656 58.1875C 372.844 58.5625 373.125 58.9375 373.5 59.3125ZM 376.312 86.875C 375.375 90.4375 374.25 92.3125 372.938 92.5C 372.375 92.5 371.625 92.5 370.688 92.5C 369.75 92.3125 369 92.0313 368.438 91.6562C 367.312 89.7813 366.844 88.5625 367.031 88C 367.219 87.25 367.5 86.6875 367.875 86.3125C 368.438 85.375 369.281 85 370.406 85.1875C 371.531 85.375 372.75 85.6562 374.062 86.0312L 376.312 86.875ZM 377.156 115.844C 376.219 116.781 375.188 117.625 374.062 118.375C 373.125 119.125 371.719 119.313 369.844 118.938C 369.281 118.188 368.812 117.531 368.438 116.969C 368.062 116.219 367.688 115.562 367.312 115C 368.25 113.125 368.719 112.188 368.719 112.188C 368.719 112 368.906 111.812 369.281 111.625C 371.719 110.687 373.594 110.875 374.906 112.188C 376.219 113.5 376.688 114.438 376.312 115C 376.125 115.375 376.406 115.656 377.156 115.844ZM 376.312 138.906C 376.312 140.781 376.219 142 376.031 142.562C 376.031 142.938 375.656 143.312 374.906 143.688C 374.156 144.25 373.406 144.438 372.656 144.25C 372.094 144.062 371.625 144.25 371.25 144.812C 369.562 144.25 368.438 142.75 367.875 140.312C 368.062 139.75 368.344 139.281 368.719 138.906C 369.094 138.531 369.281 137.969 369.281 137.219C 370.031 137.031 370.5 136.844 370.688 136.656C 371.062 136.281 371.719 136.188 372.656 136.375C 374.344 137.312 375.562 138.156 376.312 138.906ZM 368.156 172.375C 367.594 171.25 367.312 169.938 367.312 168.438C 368.438 166.938 369.188 165.812 369.562 165.062C 370.688 164.875 371.625 164.875 372.375 165.062C 373.125 165.062 373.969 165.25 374.906 165.625C 374.719 166.188 374.812 166.75 375.188 167.312C 375.75 167.688 376.219 168.156 376.594 168.719C 376.219 169.281 376.125 169.844 376.312 170.406C 376.5 170.969 376.5 171.438 376.312 171.812C 375.938 172 375.375 172.375 374.625 172.938C 373.875 173.5 373.312 173.781 372.938 173.781C 372 173.969 371.156 173.875 370.406 173.5C 369.844 172.938 369.094 172.562 368.156 172.375ZM 372.094 201.625C 371.156 202 370.5 202 370.125 201.625C 369.75 201.062 369.375 200.594 369 200.219C 367.875 199.281 367.219 198.625 367.031 198.25C 367.031 197.688 366.938 197.125 366.75 196.562C 367.312 195.625 367.875 194.781 368.438 194.031C 369.188 193.281 370.312 192.812 371.812 192.625C 372.562 193.375 373.219 193.938 373.781 194.312C 374.531 194.688 375.094 195.344 375.469 196.281C 376.219 197.594 376.031 198.625 374.906 199.375C 373.969 199.938 373.031 200.688 372.094 201.625ZM 372.094 229.75C 371.156 229.938 370.219 230.219 369.281 230.594C 368.531 230.781 367.688 230.781 366.75 230.594C 365.438 230.219 364.5 229.469 363.938 228.344C 363.562 227.219 363.375 226.094 363.375 224.969C 363.75 224.594 364.125 224.219 364.5 223.844C 365.062 223.469 365.438 223 365.625 222.438C 366.375 222.438 366.938 222.438 367.312 222.438C 367.688 222.25 368.156 222.062 368.719 221.875C 369.094 222.438 369.562 222.812 370.125 223C 370.688 223.188 371.156 223.562 371.531 224.125C 371.906 225.625 372.094 226.844 372.094 227.781C 372.281 228.719 372.281 229.375 372.094 229.75ZM 272.812 233.969C 271.875 233.781 271.312 233.969 271.125 234.531C 271.125 234.906 270.656 234.906 269.719 234.531C 267.656 235.281 265.969 235.562 264.656 235.375C 264.281 234.625 263.906 233.969 263.531 233.406C 263.156 232.656 262.969 231.906 262.969 231.156C 262.969 230.219 263.156 229.562 263.531 229.188C 264.094 228.812 264.562 228.25 264.938 227.5C 265.875 227.688 266.531 227.688 266.906 227.5C 267.281 227.312 267.938 227.219 268.875 227.219C 269.625 227.594 270.188 228.062 270.562 228.625C 271.125 229.188 271.688 229.75 272.25 230.312C 272.625 231.25 272.719 231.906 272.531 232.281C 272.531 232.469 272.625 233.031 272.812 233.969ZM 277.875 252.25C 277.312 251.875 276.75 251.312 276.188 250.562C 275.812 249.812 275.25 249.25 274.5 248.875C 274.875 248.312 275.062 247.75 275.062 247.188C 275.062 246.625 275.156 246.062 275.344 245.5C 276.469 244.375 277.312 243.906 277.875 244.094C 278.625 244.094 279.469 243.812 280.406 243.25C 281.156 243.625 281.625 244.188 281.812 244.938C 282 245.5 282.469 245.875 283.219 246.062C 283.219 246.812 283.312 247.469 283.5 248.031C 283.688 248.594 283.594 249.062 283.219 249.438C 282.094 250.938 281.344 251.781 280.969 251.969C 279.281 252.156 278.25 252.25 277.875 252.25ZM 359.156 256.188C 357.656 255.812 356.438 255.625 355.5 255.625C 354.375 253.938 353.812 253 353.812 252.812C 354 252.438 353.906 252.156 353.531 251.969C 353.719 250.844 354 250 354.375 249.438C 354.938 248.688 355.5 248.031 356.062 247.469C 357.375 247.281 358.594 247.469 359.719 248.031C 360.844 248.406 361.594 249.156 361.969 250.281C 361.969 252.531 361.781 253.75 361.406 253.938C 361.219 254.125 360.938 254.406 360.562 254.781L 359.156 256.188ZM 298.969 258.156C 298.594 259.094 298.406 259.844 298.406 260.406C 298.594 260.969 298.5 261.719 298.125 262.656C 297.75 262.844 297.188 263.125 296.438 263.5C 295.875 263.688 295.125 263.688 294.188 263.5C 293.25 263.312 292.219 262.75 291.094 261.812C 289.969 260.688 289.688 259.281 290.25 257.594C 291.938 256.281 293.531 255.719 295.031 255.906C 295.969 256.094 296.719 256.469 297.281 257.031C 297.844 257.594 298.406 257.969 298.969 258.156ZM 342.844 263.219C 343.031 263.781 343.125 264.344 343.125 264.906C 343.312 265.281 343.406 265.75 343.406 266.312C 342.656 267.25 342.281 267.906 342.281 268.281C 342.281 268.844 342.188 269.219 342 269.406C 340.125 270.156 338.531 270.25 337.219 269.688C 335.906 268.562 334.875 267.438 334.125 266.312C 333.562 265.188 333.844 264.344 334.969 263.781C 335.531 263.031 336.188 262.562 336.938 262.375C 337.688 262 338.438 261.625 339.188 261.25C 340.875 262.188 341.812 262.844 342 263.219C 342.188 263.406 342.469 263.406 342.844 263.219ZM 317.531 267.438C 317.719 268.375 317.812 268.938 317.812 269.125C 318 269.5 317.906 270.156 317.531 271.094C 314.719 272.594 312.938 273.156 312.188 272.781C 311.625 272.594 310.969 272.031 310.219 271.094C 309.656 270.344 309.469 269.406 309.656 268.281C 309.656 267.531 310.031 266.969 310.781 266.594C 311.719 266.031 312.656 265.75 313.594 265.75C 314.531 265.75 315.281 266.031 315.844 266.594C 316.406 266.969 316.969 267.25 317.531 267.438ZM 498.656 65.2188C 497.719 65.2188 496.875 65.3125 496.125 65.5C 495.375 65.6875 494.625 65.5938 493.875 65.2188C 492.75 64.2812 492.094 63.4375 491.906 62.6875C 491.719 61.9375 491.438 61.2812 491.062 60.7188C 491.812 59.9688 492.375 58.8438 492.75 57.3438C 493.5 57.3438 494.156 57.25 494.719 57.0625C 495.281 56.875 495.844 56.875 496.406 57.0625C 497.156 57.0625 497.719 57.3438 498.094 57.9062C 498.656 58.4688 499.406 58.8438 500.344 59.0312C 500.719 60.9062 500.625 62.3125 500.062 63.25C 499.5 64 499.031 64.6562 498.656 65.2188ZM 468.844 61.5625C 468.656 62.3125 468.281 62.7813 467.719 62.9688C 467.156 63.1562 467.062 63.7187 467.438 64.6562C 466.688 64.8437 466.125 65.125 465.75 65.5C 465.375 65.6875 464.812 65.875 464.062 66.0625C 463.312 66.0625 462.562 65.9687 461.812 65.7812C 461.25 65.5938 460.594 65.4062 459.844 65.2188C 459.281 64.8437 458.906 64.375 458.719 63.8125C 458.719 63.0625 458.531 62.4062 458.156 61.8438C 458.719 61.2812 459.188 60.1562 459.562 58.4688C 460.312 58.0937 461.156 57.9062 462.094 57.9062C 463.031 57.7188 463.969 57.625 464.906 57.625C 466.219 59.125 466.969 59.875 467.156 59.875C 467.531 59.6875 467.812 59.6875 468 59.875L 468.844 61.5625ZM 435.938 62.6875C 435.562 64 435.375 65.0313 435.375 65.7812C 431.438 67.2813 428.719 67.2813 427.219 65.7812C 427.219 65.2188 427.031 64.75 426.656 64.375C 426.469 63.8125 426.375 63.25 426.375 62.6875C 427.125 61.75 427.406 61 427.219 60.4375C 427.219 59.875 427.406 59.3125 427.781 58.75C 428.156 59.125 428.531 59.2187 428.906 59.0312C 429.469 58.6562 430.125 58.4688 430.875 58.4688C 431.625 58.6562 432.188 58.8438 432.562 59.0312C 432.938 59.2187 433.5 59.5 434.25 59.875C 434.25 60.625 434.438 61.1875 434.812 61.5625C 435.188 61.9375 435.562 62.3125 435.938 62.6875ZM 530.156 64.375C 530.156 64.9375 530.062 65.4062 529.875 65.7812C 529.875 66.1563 529.875 66.7188 529.875 67.4688C 527.812 68.7812 526.312 69.5313 525.375 69.7188C 524.438 69.9062 523.5 69.625 522.562 68.875C 521.625 68.125 521.156 67.5625 521.156 67.1875C 521.156 66.625 520.875 66.3438 520.312 66.3438C 521.062 64.8437 521.25 63.5312 520.875 62.4062C 521.625 62.0312 522.188 61.6563 522.562 61.2812C 523.125 60.9062 523.781 60.8125 524.531 61C 527.531 61.9375 529.406 63.0625 530.156 64.375ZM 556.312 83.7812C 555.938 84.5312 555.75 85 555.75 85.1875C 555.75 85.375 555.656 85.9375 555.469 86.875C 554.719 87.0625 554.25 87.4375 554.062 88C 554.062 88.375 553.594 88.6563 552.656 88.8438C 551.719 89.2188 550.875 89.2188 550.125 88.8438C 549.375 88.2812 548.531 87.9062 547.594 87.7188C 547.219 86.7812 546.844 85.8438 546.469 84.9062C 546.281 83.9687 546.375 82.8437 546.75 81.5312C 549.188 80.4062 550.594 79.9375 550.969 80.125C 551.531 80.125 552 79.9375 552.375 79.5625C 553.688 80.875 554.531 81.8125 554.906 82.375C 555.469 82.9375 555.938 83.4062 556.312 83.7812ZM 429.75 97.8438C 427.875 96.3437 426.938 95.3125 426.938 94.75C 426.938 94 426.656 93.5312 426.094 93.3438C 426.469 92.9687 426.75 92.5938 426.938 92.2188C 427.125 91.6562 427.219 90.9063 427.219 89.9688C 427.969 89.5937 428.812 89.2188 429.75 88.8438C 430.688 88.4687 431.625 88.4687 432.562 88.8438C 433.125 89.2188 433.688 89.5937 434.25 89.9688C 434.812 90.1562 435.281 90.4375 435.656 90.8125L 436.219 94.75C 433.969 96.8125 431.812 97.8438 429.75 97.8438ZM 563.062 115.562C 562.875 116.125 562.5 116.594 561.938 116.969C 561.562 117.344 561.281 117.906 561.094 118.656C 560.156 118.844 559.406 119.031 558.844 119.219C 558.281 119.219 557.625 119.313 556.875 119.5C 556.312 118.938 555.75 118.188 555.188 117.25C 554.812 116.312 554.344 115.562 553.781 115C 554.531 112.75 555.094 111.531 555.469 111.344C 555.844 110.969 556.219 110.406 556.594 109.656C 557.531 109.844 558.094 110.031 558.281 110.219C 558.656 110.406 559.219 110.406 559.969 110.219C 561.281 111.344 562.031 112 562.219 112.188C 562.594 112.375 562.875 112.656 563.062 113.031L 563.062 115.562ZM 435.938 124.562C 436.5 126.062 436.406 127.375 435.656 128.5C 434.906 129.625 434.156 130.656 433.406 131.594C 429.469 132.531 427.031 131.5 426.094 128.5C 426.656 127.375 426.844 126.344 426.656 125.406C 427.031 125.219 427.312 124.844 427.5 124.281C 427.875 123.719 428.25 123.25 428.625 122.875C 431.438 122.875 433.125 123.156 433.688 123.719C 434.25 124.094 435 124.375 435.938 124.562ZM 550.969 138.906L 553.219 141.719C 553.406 143.594 553.406 144.812 553.219 145.375C 553.031 145.75 552.938 146.219 552.938 146.781C 552 146.406 551.438 146.5 551.25 147.062C 551.062 147.625 550.594 148.094 549.844 148.469C 548.719 148.469 547.875 148.281 547.312 147.906C 546.75 147.344 546 147.062 545.062 147.062C 545.438 146.125 545.344 145.469 544.781 145.094C 544.406 144.531 544.125 143.969 543.938 143.406C 545.438 141.156 546.656 139.938 547.594 139.75C 548.719 139.562 549.844 139.281 550.969 138.906ZM 436.219 160.281C 435.469 162.156 435.094 163.281 435.094 163.656C 435.281 163.844 435.375 164.031 435.375 164.219C 434.062 165.906 433.312 166.562 433.125 166.188C 432.938 165.625 432.656 165.25 432.281 165.062C 430.031 165.062 428.719 164.969 428.344 164.781C 427.969 164.406 427.594 164.125 427.219 163.938C 426.844 162.625 426.656 161.781 426.656 161.406C 426.656 161.031 426.469 160.656 426.094 160.281C 427.594 158.594 428.719 157.562 429.469 157.188C 430.406 156.812 431.719 156.719 433.406 156.906C 433.969 157.281 434.438 157.844 434.812 158.594C 435.188 159.344 435.656 159.906 436.219 160.281ZM 527.906 164.5C 527.906 166.938 527.062 168.531 525.375 169.281C 522.188 170.031 519.938 169.656 518.625 168.156C 518.812 166.656 518.906 165.531 518.906 164.781C 519.094 163.844 519.469 162.719 520.031 161.406C 520.594 161.219 521.156 161.031 521.719 160.844C 522.469 160.656 523.031 160.656 523.406 160.844C 525.469 162.156 526.594 163 526.781 163.375C 527.156 163.75 527.531 164.125 527.906 164.5ZM 494.438 169.281C 494.062 170.219 493.969 171.156 494.156 172.094C 494.531 172.844 494.438 173.688 493.875 174.625C 493.5 175.375 492.469 175.938 490.781 176.312C 489.281 176.5 488.062 176.312 487.125 175.75C 486.188 174.062 485.531 173.031 485.156 172.656C 484.781 172.281 484.688 171.906 484.875 171.531C 484.875 170.969 485.156 170.406 485.719 169.844C 486.281 169.281 486.656 168.625 486.844 167.875C 487.594 167.875 488.156 167.781 488.531 167.594C 489.094 167.406 489.75 167.312 490.5 167.312C 491.25 167.5 491.812 167.969 492.188 168.719C 492.75 169.281 493.5 169.469 494.438 169.281ZM 462.094 168.156C 462.469 168.906 462.75 169.375 462.938 169.562C 463.312 169.75 463.688 170.219 464.062 170.969C 463.5 173.219 463.125 174.438 462.938 174.625C 462.938 174.625 462.656 175 462.094 175.75C 459.844 176.688 458.25 176.688 457.312 175.75C 455.438 173.5 454.688 171.906 455.062 170.969C 455.438 170.031 455.812 169.188 456.188 168.438C 457.875 167.688 459 167.5 459.562 167.875C 460.312 168.25 461.156 168.344 462.094 168.156ZM 516.375 194.031C 514.875 194.031 513.75 194.031 513 194.031C 512.438 193.844 511.688 193.938 510.75 194.312C 510.562 193.562 510.281 193 509.906 192.625C 509.531 192.25 509.344 191.688 509.344 190.938C 508.969 190 508.875 189.344 509.062 188.969C 509.25 188.406 509.25 187.656 509.062 186.719C 511.125 185.969 512.719 185.312 513.844 184.75C 514.781 185.125 515.438 185.5 515.812 185.875C 516.188 186.25 516.844 186.625 517.781 187C 518.156 189.25 518.062 190.75 517.5 191.5C 516.938 192.25 516.562 193.094 516.375 194.031ZM 434.531 192.344C 434.906 193.094 435.188 193.75 435.375 194.312C 435.75 194.875 436.031 195.625 436.219 196.562C 435.844 197.125 435.375 197.5 434.812 197.688C 434.438 197.875 434.062 198.156 433.688 198.531C 432 200.031 431.156 200.781 431.156 200.781C 431.156 200.594 430.969 200.406 430.594 200.219C 428.719 199.844 427.594 199.469 427.219 199.094C 427.031 198.531 426.75 198.156 426.375 197.969C 426.75 197.031 426.844 196.281 426.656 195.719C 426.469 195.156 426.469 194.5 426.656 193.75C 428.156 193.188 428.906 192.812 428.906 192.625C 429.094 192.438 429.375 192.344 429.75 192.344C 431.25 192.156 432.844 192.156 434.531 192.344ZM 532.125 211.469L 534.375 213.719C 535.5 215.219 536.062 216.156 536.062 216.531C 536.062 216.906 536.25 217.094 536.625 217.094C 534.562 218.969 532.969 220.188 531.844 220.75C 530.719 221.125 529.5 221.031 528.188 220.469C 527.062 219.531 526.219 218.781 525.656 218.219C 525.844 216.344 526.031 215.031 526.219 214.281C 526.594 213.531 526.969 212.875 527.344 212.312C 528.094 211.938 528.844 211.75 529.594 211.75C 530.531 211.75 531.375 211.656 532.125 211.469ZM 426.656 228.344C 428.906 227.031 430.406 226.375 431.156 226.375C 432.469 226.75 433.594 226.938 434.531 226.938C 435.094 228.438 435.469 229.281 435.656 229.469C 436.031 229.656 436.219 230.031 436.219 230.594C 436.219 231.156 435.938 231.812 435.375 232.562C 435 233.312 434.625 233.875 434.25 234.25C 431.438 234.812 429.562 234.906 428.625 234.531C 428.25 234.344 427.875 233.969 427.5 233.406C 427.125 232.656 426.75 232.094 426.375 231.719C 426.188 230.969 426.188 230.5 426.375 230.312C 426.75 229.938 426.844 229.281 426.656 228.344ZM 550.688 245.781C 549.375 245.594 548.156 245.5 547.031 245.5C 546.094 245.312 545.25 244.938 544.5 244.375C 543.938 242.125 543.562 240.812 543.375 240.438C 543.375 239.875 543.562 239.312 543.938 238.75C 545.25 237.812 546.188 237.25 546.75 237.062C 547.312 236.688 548.062 236.688 549 237.062C 550.875 238.375 552 239.031 552.375 239.031C 552.75 239.781 552.938 240.719 552.938 241.844C 553.125 242.969 552.75 243.719 551.812 244.094L 550.688 245.781ZM 433.125 271.094C 432.188 270.719 431.156 270.438 430.031 270.25C 429.094 270.25 428.156 270.062 427.219 269.688C 426.281 267.625 425.906 266.219 426.094 265.469C 426.281 264.531 426.656 263.969 427.219 263.781C 428.531 262.094 429.375 261.344 429.75 261.531C 430.125 261.719 430.594 261.812 431.156 261.812C 433.031 261.812 434.438 262.469 435.375 263.781C 435.938 264.906 436.219 265.844 436.219 266.594C 436.219 267.344 436.125 267.906 435.938 268.281C 435 268.844 434.438 269.406 434.25 269.969C 434.062 270.531 433.688 270.906 433.125 271.094ZM 566.438 271.375C 565.5 271.375 564.844 271.188 564.469 270.812C 564.094 270.625 563.25 270.531 561.938 270.531C 561.562 269.969 561.094 269.5 560.531 269.125C 559.969 268.938 559.5 268.656 559.125 268.281C 559.5 265.469 559.781 263.969 559.969 263.781C 561.844 262.469 563.156 261.812 563.906 261.812C 564.844 261.625 565.594 261.438 566.156 261.25C 566.906 261.625 567.562 262.094 568.125 262.656C 568.688 263.219 569.25 263.781 569.812 264.344C 569.812 266.406 569.531 267.812 568.969 268.562C 568.031 269.875 567.469 270.625 567.281 270.812C 567.094 271 566.812 271.188 566.438 271.375Z" transform="translate(518 281)" fill="#F15EB4"/>
</g>
<g id="mjr_5">
<path d="M 13.2188 198.234C 16.2188 189.422 19.4531 182.859 22.9219 178.547C 26.3906 174.141 30.4688 171.938 35.1562 171.938C 37.2188 171.938 39.1406 172.406 40.9219 173.344C 42.7969 174.281 44.4375 175.828 45.8438 177.984C 47.25 180.047 48.3281 182.766 49.0781 186.141C 49.9219 189.516 50.3438 193.641 50.3438 198.516C 54.5625 187.734 58.8281 180.047 63.1406 175.453C 67.4531 170.859 72.1406 168.562 77.2031 168.562C 79.0781 168.562 80.9531 168.938 82.8281 169.688C 84.7969 170.438 86.5312 171.797 88.0312 173.766C 89.625 175.641 90.9375 178.219 91.9688 181.5C 93 184.781 93.5625 188.906 93.6562 193.875C 96.1875 188.906 99.3281 184.875 103.078 181.781C 106.922 178.688 111.141 177.141 115.734 177.141C 117.984 177.141 120.234 177.562 122.484 178.406C 124.734 179.156 126.703 180.469 128.391 182.344C 130.172 184.219 131.625 186.703 132.75 189.797C 133.875 192.797 134.438 196.547 134.438 201.047C 134.438 202.359 134.344 204.094 134.156 206.25C 133.969 208.312 133.734 210.609 133.453 213.141C 133.172 215.672 132.891 218.25 132.609 220.875C 132.328 223.5 132.047 225.984 131.766 228.328C 131.484 230.578 131.25 232.594 131.062 234.375C 130.875 236.062 130.781 237.234 130.781 237.891C 130.781 243.422 131.438 247.453 132.75 249.984C 134.062 252.516 136.453 253.781 139.922 253.781C 142.547 253.781 145.219 252.234 147.938 249.141C 150.656 245.953 153.422 241.781 156.234 236.625C 159.047 231.469 161.906 225.562 164.812 218.906C 167.719 212.25 170.672 205.359 173.672 198.234L 179.156 199.641C 176.438 206.109 173.625 212.953 170.719 220.172C 167.812 227.391 164.625 234.047 161.156 240.141C 157.781 246.234 154.125 251.297 150.188 255.328C 146.25 259.266 141.891 261.234 137.109 261.234C 131.578 261.234 127.359 259.594 124.453 256.312C 121.547 253.031 120.094 247.547 120.094 239.859C 120.094 236.484 120.328 232.922 120.797 229.172C 121.266 225.328 121.781 221.531 122.344 217.781C 123 213.938 123.562 210.234 124.031 206.672C 124.5 203.016 124.734 199.688 124.734 196.688C 124.734 195 124.594 193.312 124.312 191.625C 124.031 189.938 123.516 188.438 122.766 187.125C 122.109 185.719 121.172 184.641 119.953 183.891C 118.828 183.047 117.328 182.625 115.453 182.625C 113.109 182.625 110.859 183.75 108.703 186C 106.547 188.25 104.484 191.25 102.516 195C 100.547 198.75 98.7188 203.062 97.0312 207.938C 95.3438 212.719 93.8438 217.688 92.5312 222.844C 91.2188 227.906 90.0469 232.969 89.0156 238.031C 87.9844 243 87.1875 247.547 86.625 251.672L 76.6406 249.984C 76.6406 249.984 76.875 248.859 77.3438 246.609C 77.8125 244.266 78.3281 241.312 78.8906 237.75C 79.5469 234.094 80.25 230.016 81 225.516C 81.75 220.922 82.4062 216.328 82.9688 211.734C 83.625 207.141 84.1406 202.734 84.5156 198.516C 84.9844 194.297 85.2188 190.734 85.2188 187.828C 85.2188 183.891 84.4688 180.656 82.9688 178.125C 81.4688 175.594 79.2656 174.328 76.3594 174.328C 73.6406 174.328 71.0156 175.875 68.4844 178.969C 66.0469 182.062 63.75 186.141 61.5938 191.203C 59.4375 196.172 57.4219 201.844 55.5469 208.219C 53.6719 214.5 51.9375 220.875 50.3438 227.344C 48.75 233.719 47.3438 239.859 46.125 245.766C 44.9062 251.672 43.8281 256.734 42.8906 260.953L 33.4688 258.703C 34.7812 252.234 35.9531 245.672 36.9844 239.016C 37.9219 233.297 38.7656 227.016 39.5156 220.172C 40.2656 213.328 40.6406 206.672 40.6406 200.203C 40.6406 196.078 40.5469 192.656 40.3594 189.938C 40.1719 187.125 39.7969 184.875 39.2344 183.188C 38.6719 181.5 37.875 180.328 36.8438 179.672C 35.9062 178.922 34.6875 178.547 33.1875 178.547C 30.8438 178.547 28.4531 180.234 26.0156 183.609C 23.5781 186.984 21.1406 192.328 18.7031 199.641L 13.2188 198.234ZM 187.312 169.125C 187.125 170.625 186.609 173.906 185.766 178.969C 185.016 183.938 184.172 190.641 183.234 199.078C 182.297 207.516 181.312 217.688 180.281 229.594C 179.344 241.406 178.547 254.953 177.891 270.234C 182.109 266.016 186.328 261.234 190.547 255.891C 194.766 250.453 198.844 244.688 202.781 238.594C 206.719 232.406 210.375 225.938 213.75 219.188C 217.219 212.344 220.219 205.359 222.75 198.234L 228.234 199.641C 225.234 207.703 221.766 215.578 217.828 223.266C 213.984 230.859 209.812 238.125 205.312 245.062C 200.906 251.906 196.312 258.281 191.531 264.188C 186.75 270.094 182.016 275.344 177.328 279.938L 177.328 285.703C 176.859 298.359 175.359 309.094 172.828 317.906C 170.297 326.812 167.25 334.031 163.688 339.562C 160.219 345.188 156.469 349.266 152.438 351.797C 148.312 354.422 144.516 355.734 141.047 355.734C 138.141 355.734 135.422 355.219 132.891 354.188C 130.266 353.156 127.969 351.703 126 349.828C 124.031 347.953 122.484 345.656 121.359 342.938C 120.234 340.219 119.672 337.172 119.672 333.797C 119.672 327.891 120.703 322.594 122.766 317.906C 124.828 313.312 127.641 309.141 131.203 305.391C 134.672 301.641 138.75 298.219 143.438 295.125C 148.031 292.031 152.906 289.078 158.062 286.266C 159.094 285.703 160.078 285.094 161.016 284.438C 162.047 283.781 163.078 283.078 164.109 282.328C 164.672 270.141 165.281 259.547 165.938 250.547C 166.688 241.547 167.484 233.672 168.328 226.922C 169.172 220.078 170.109 214.078 171.141 208.922C 172.172 203.766 173.25 198.984 174.375 194.578C 175.594 190.078 176.812 185.672 178.031 181.359C 179.344 177.047 180.75 172.359 182.25 167.297L 187.312 169.125ZM 160.594 322.547C 161.625 318.984 162.375 314.766 162.844 309.891C 163.312 305.016 163.641 299.625 163.828 293.719L 163.828 291.75C 162.797 292.5 161.812 293.156 160.875 293.719C 160.031 294.375 159.188 294.984 158.344 295.547C 153.656 298.266 149.391 301.078 145.547 303.984C 141.703 306.984 138.422 310.125 135.703 313.406C 132.984 316.781 130.875 320.344 129.375 324.094C 127.875 327.938 127.125 332.062 127.125 336.469C 127.125 338.156 127.453 339.797 128.109 341.391C 128.672 342.984 129.516 344.391 130.641 345.609C 131.672 346.922 132.938 347.953 134.438 348.703C 135.938 349.547 137.625 349.969 139.5 349.969C 143.625 349.969 147.516 347.719 151.172 343.219C 154.734 338.719 157.875 331.828 160.594 322.547ZM 207.281 121.312C 207.281 124.594 206.016 127.125 203.484 128.906C 200.953 130.688 197.812 131.578 194.062 131.578C 192 131.578 190.078 131.297 188.297 130.734C 186.609 130.078 185.109 129.281 183.797 128.344C 182.578 127.312 181.594 126.141 180.844 124.828C 180.188 123.422 179.859 121.969 179.859 120.469C 179.859 117.281 181.078 114.703 183.516 112.734C 186.047 110.766 188.953 109.781 192.234 109.781C 194.578 109.781 196.688 110.156 198.562 110.906C 200.438 111.563 202.031 112.453 203.344 113.578C 204.656 114.703 205.641 115.969 206.297 117.375C 206.953 118.687 207.281 120 207.281 121.312ZM 199.828 121.312C 199.828 120.375 199.406 119.531 198.562 118.781C 197.719 117.938 196.5 117.516 194.906 117.516C 192 117.516 190.547 118.594 190.547 120.75C 190.547 121.781 190.969 122.672 191.812 123.422C 192.75 124.078 193.969 124.406 195.469 124.406C 196.875 124.406 197.953 124.125 198.703 123.562C 199.453 122.906 199.828 122.156 199.828 121.312ZM 230.906 192.188C 229.969 195.469 229.031 198.281 228.094 200.625C 227.156 202.969 226.125 205.172 225 207.234C 223.875 209.203 222.609 211.125 221.203 213C 219.891 214.781 218.391 216.75 216.703 218.906L 215.578 217.781C 217.734 212.25 219.609 207.047 221.203 202.172C 222.891 197.297 224.391 192.422 225.703 187.547C 224.203 185.391 222.891 182.719 221.766 179.531C 220.734 176.25 220.219 172.359 220.219 167.859C 220.219 163.828 220.828 160.5 222.047 157.875C 223.359 155.156 225.047 153.797 227.109 153.797C 228.234 153.797 229.266 154.312 230.203 155.344C 231.234 156.375 232.078 157.734 232.734 159.422C 233.391 161.109 233.906 163.078 234.281 165.328C 234.656 167.484 234.844 169.781 234.844 172.219C 234.844 173.344 234.75 174.562 234.562 175.875C 234.469 177.188 234.328 178.547 234.141 179.953C 233.953 181.266 233.719 182.578 233.438 183.891C 233.156 185.109 232.875 186.141 232.594 186.984C 233.156 187.453 234.047 187.875 235.266 188.25C 236.578 188.531 238.266 188.672 240.328 188.672C 243.891 188.672 247.031 188.156 249.75 187.125C 252.469 186.094 254.625 184.781 256.219 183.188C 257.625 180.938 258.703 179.203 259.453 177.984C 260.297 176.766 260.953 175.875 261.422 175.312C 261.891 174.656 262.219 174.281 262.406 174.188C 262.688 174 263.016 173.906 263.391 173.906C 264.422 173.906 265.266 174.188 265.922 174.75C 266.578 175.312 266.906 176.109 266.906 177.141C 266.906 177.422 266.766 177.797 266.484 178.266C 266.203 178.734 265.828 179.344 265.359 180.094C 261.422 185.812 258.328 192.094 256.078 198.938C 253.828 205.781 252.703 213.375 252.703 221.719C 252.703 231.375 254.25 238.359 257.344 242.672C 260.531 246.984 265.031 249.141 270.844 249.141C 274.031 249.141 277.078 248.203 279.984 246.328C 282.891 244.359 285.75 241.359 288.562 237.328C 291.375 233.203 294.188 227.953 297 221.578C 299.906 215.109 303 207.328 306.281 198.234L 311.766 199.641C 307.734 211.547 303.938 221.344 300.375 229.031C 296.812 236.625 293.297 242.672 289.828 247.172C 286.359 251.578 282.797 254.672 279.141 256.453C 275.484 258.141 271.5 258.984 267.188 258.984C 264.469 258.984 261.656 258.375 258.75 257.156C 255.844 255.938 253.172 254.016 250.734 251.391C 248.391 248.766 246.469 245.391 244.969 241.266C 243.469 237.047 242.719 231.984 242.719 226.078C 242.719 223.172 242.953 220.172 243.422 217.078C 243.984 213.891 244.688 210.844 245.531 207.938C 246.375 204.938 247.312 202.078 248.344 199.359C 249.375 196.547 250.453 194.016 251.578 191.766C 248.203 193.359 244.547 194.156 240.609 194.156C 236.766 194.156 233.531 193.5 230.906 192.188Z" transform="translate(316 905)" fill="#F15EB4"/>
</g>
<g id="mjr_6">
<path d="M 14.688 235.16C 14.688 229.784 15.264 221.912 16.416 211.544C 17.76 202.136 18.432 194.072 18.432 187.352C 18.432 183.128 17.952 177.944 16.992 171.8C 16.416 168.92 16.128 166.136 16.128 163.448C 16.128 155.96 16.512 146.456 17.28 134.936C 17.856 128.216 18.144 122.936 18.144 119.096L 20.16 117.08C 20.544 117.272 22.56 117.368 26.208 117.368C 28.704 117.368 30.816 117.08 32.544 116.504C 34.464 115.928 36.096 115.64 37.44 115.64C 38.784 115.64 40.032 116.792 41.184 119.096C 42.528 121.4 43.2 123.128 43.2 124.28C 45.696 123.32 48.768 121.784 52.416 119.672C 58.368 116.792 63.168 114.776 66.816 113.624C 70.656 112.28 75.264 111.608 80.64 111.608C 89.088 111.608 97.344 113.816 105.408 118.232C 113.472 122.456 120.48 128.024 126.432 134.936L 127.584 135.224C 128.16 135.224 131.808 132.824 138.528 128.024C 145.248 123.224 148.992 120.248 149.76 119.096L 172.8 113.624C 189.12 113.624 202.08 119 211.68 129.752C 221.472 140.504 227.424 154.04 229.536 170.36L 229.248 182.744C 229.248 187.736 229.92 191.288 231.264 193.4L 231.552 229.112C 231.552 237.176 230.208 243.32 227.52 247.544C 225.024 251.768 219.744 253.88 211.68 253.88C 205.152 253.88 200.928 251.192 199.008 245.816C 197.28 240.44 196.32 232.856 196.128 223.064C 196.128 218.264 196.032 214.904 195.84 212.984C 195.84 212.024 195.264 206.552 194.112 196.568C 192.768 187.736 192.096 181.976 192.096 179.288C 192.096 177.752 192.48 175.448 193.248 172.376C 193.824 168.344 194.112 166.232 194.112 166.04C 194.112 154.52 187.584 146.552 174.528 142.136L 174.528 140.408C 172.608 141.944 168.384 143.192 161.856 144.152C 154.944 145.112 149.28 146.648 144.864 148.76C 140.64 150.872 138.048 154.616 137.088 159.992L 136.8 172.952C 136.8 179.288 137.088 186.296 137.664 193.976C 138.24 201.464 138.624 206.456 138.816 208.952C 140.16 222.776 140.832 234.584 140.832 244.376C 140.832 248.792 133.536 251 118.944 251C 115.488 251 112.608 250.712 110.304 250.136C 108 249.368 106.848 247.64 106.848 244.952L 103.392 246.968C 103.584 245.048 103.68 242.456 103.68 239.192C 104.832 221.528 105.408 205.784 105.408 191.96C 105.408 187.352 104.928 181.4 103.968 174.104C 103.008 166.616 101.76 159.512 100.224 152.792C 96.576 148.76 93.12 145.88 89.856 144.152C 86.784 142.232 82.464 140.408 76.896 138.68C 75.744 137.528 75.168 136.952 75.168 136.952C 74.592 137.912 71.808 139.928 66.816 143C 61.824 145.88 57.504 147.896 53.856 149.048C 53.856 149.816 52.992 152.792 51.264 157.976C 48.384 166.616 46.848 171.896 46.656 173.816L 46.368 181.016C 46.368 184.28 46.752 188.984 47.52 195.128C 48.288 201.656 48.672 206.456 48.672 209.528C 48.672 217.976 48.096 227.288 46.944 237.464C 45.984 247.64 44.064 253.688 41.184 255.608L 35.136 255.896C 33.6 255.896 29.664 255.128 23.328 253.592C 16.992 252.056 14.208 251.096 14.976 250.712L 14.688 235.16ZM 34.272 152.792C 37.92 152.792 41.088 151.448 43.776 148.76C 46.464 146.072 49.344 142.424 52.416 137.816C 54.336 134.936 55.872 132.824 57.024 131.48C 58.368 130.136 59.616 129.464 60.768 129.464L 59.04 133.208C 61.152 133.016 63.552 132.44 66.24 131.48C 70.08 130.328 73.056 129.752 75.168 129.752L 75.168 132.056C 76.704 132.056 78.528 131.384 80.64 130.04C 82.752 128.504 84.48 127.736 85.824 127.736L 83.808 129.464C 85.536 131 87.072 132.056 88.416 132.632C 89.76 133.016 91.584 133.208 93.888 133.208C 95.424 133.208 96.864 132.824 98.208 132.056C 99.552 131.288 100.224 130.136 100.224 128.6C 100.224 124.76 98.208 122.456 94.176 121.688C 90.144 120.92 85.44 120.536 80.064 120.536C 76.608 120.536 73.824 120.92 71.712 121.688C 69.792 122.264 67.392 123.8 64.512 126.296L 66.24 122.552C 61.056 124.472 55.872 127.16 50.688 130.616C 45.504 133.88 42.912 137.72 42.912 142.136C 42.912 143.096 43.008 143.768 43.2 144.152L 34.272 152.792ZM 208.8 183.608C 213.984 183.224 217.92 182.36 220.608 181.016L 220.896 170.072C 220.896 165.464 220.224 161.144 218.88 157.112L 213.696 157.112C 214.272 156.92 214.944 156.248 215.712 155.096C 216.48 153.752 216.96 152.792 217.152 152.216C 217.152 149.72 215.712 146.552 212.832 142.712C 209.952 138.68 206.592 135.224 202.752 132.344C 199.104 129.272 196.128 127.736 193.824 127.736C 192.864 127.736 191.808 128.024 190.656 128.6C 189.504 128.984 188.352 129.176 187.2 129.176C 187.2 128.792 187.392 128.408 187.776 128.024C 188.352 127.448 188.64 126.968 188.64 126.584C 188.64 124.856 186.528 123.8 182.304 123.416C 178.272 122.84 174.528 122.552 171.072 122.552C 165.696 122.552 160.32 123.896 154.944 126.584C 149.76 129.272 145.632 132.728 142.56 136.952L 144.288 138.68L 162.144 129.464L 160.416 133.208C 164.256 130.52 167.136 128.696 169.056 127.736L 165.6 133.208C 178.08 135.704 184.8 136.952 185.76 136.952L 190.656 136.376C 190.656 138.488 190.752 139.832 190.944 140.408C 191.328 140.984 191.904 141.272 192.672 141.272L 196.128 140.984L 195.84 144.152C 196.224 144.536 196.8 145.784 197.568 147.896C 198.528 149.816 199.392 150.776 200.16 150.776C 201.12 150.584 202.368 150.2 203.904 149.624C 205.44 149.048 206.88 148.376 208.224 147.608C 207.072 148.76 205.824 150.296 204.48 152.216C 203.136 153.944 202.464 155 202.464 155.384C 202.464 156.152 203.136 156.728 204.48 157.112C 205.824 157.496 206.496 157.784 206.496 157.976C 206.496 158.744 206.304 159.704 205.92 160.856C 205.536 161.816 205.152 162.68 204.768 163.448L 208.224 163.448C 207.072 165.176 206.304 167.576 205.92 170.648C 205.536 173.144 205.056 175.064 204.48 176.408C 204.096 177.56 203.04 178.52 201.312 179.288C 201.504 179.288 201.792 179.384 202.176 179.576C 202.56 179.576 203.136 179.576 203.904 179.576C 206.4 179.576 208.416 179 209.952 177.848L 202.752 184.472L 208.8 183.608ZM 36 140.408C 35.04 139.256 34.464 138.296 34.272 137.528C 34.08 136.76 33.984 135.512 33.984 133.784C 33.984 133.016 34.272 131.96 34.848 130.616C 35.616 129.272 36 128.312 36 127.736C 36 126.584 33.888 126.008 29.664 126.008C 26.784 126.008 25.344 126.872 25.344 128.6C 25.344 129.56 25.632 130.712 26.208 132.056C 26.784 133.208 27.36 133.784 27.936 133.784C 28.128 133.784 28.416 133.592 28.8 133.208L 25.344 138.68C 25.536 139.064 25.824 139.448 26.208 139.832C 26.784 140.216 27.264 140.408 27.648 140.408C 28.8 140.408 29.76 140.312 30.528 140.12C 31.488 139.928 32.16 139.832 32.544 139.832L 32.544 142.136L 36 140.408ZM 97.92 135.8C 97.92 136.76 98.304 137.528 99.072 138.104C 99.84 138.488 100.608 138.68 101.376 138.68C 102.72 138.488 104.736 138.104 107.424 137.528C 110.112 136.76 112.32 135.896 114.048 134.936C 112.512 133.208 111.072 131.864 109.728 130.904C 108.384 129.944 106.944 129.464 105.408 129.464C 103.68 129.464 102.336 129.848 101.376 130.616C 100.608 131.384 99.936 132.344 99.36 133.496C 98.784 134.456 98.304 135.224 97.92 135.8ZM 112.032 138.68C 109.728 138.68 107.616 139.16 105.696 140.12C 103.968 140.888 103.104 142.328 103.104 144.44C 107.712 144.44 111.36 142.52 114.048 138.68L 112.032 138.68ZM 117.792 140.408C 117.216 140.408 115.2 141.56 111.744 143.864C 108.48 145.976 106.848 147.224 106.848 147.608C 114.144 147.608 118.944 145.784 121.248 142.136L 117.792 140.408ZM 137.088 141.848C 134.976 141.848 131.808 143.384 127.584 146.456C 123.36 149.336 119.424 152.6 115.776 156.248C 112.32 159.704 110.592 162.104 110.592 163.448C 113.856 162.104 116.928 161.24 119.808 160.856C 122.112 160.28 123.84 159.704 124.992 159.128C 126.336 158.36 128.16 156.536 130.464 153.656C 132.768 150.776 135.648 146.936 139.104 142.136L 137.088 141.848ZM 25.344 150.776L 27.072 150.776L 27.072 149.048L 25.344 150.776ZM 117.792 149.048C 114.528 149.24 111.84 149.72 109.728 150.488C 107.808 151.256 106.848 152.984 106.848 155.672C 106.848 156.248 107.52 156.536 108.864 156.536C 109.824 156.152 111.552 155.384 114.048 154.232C 116.544 152.888 117.792 151.736 117.792 150.776L 117.792 149.048ZM 122.976 161.72C 119.904 161.72 117.024 162.584 114.336 164.312C 111.648 165.848 110.304 168.056 110.304 170.936C 111.456 170.36 113.664 169.304 116.928 167.768C 120.384 166.04 122.976 164.6 124.704 163.448C 124.704 163.064 124.512 162.68 124.128 162.296C 123.744 161.912 123.36 161.72 122.976 161.72ZM 119.52 175.832C 114.336 176.984 111.744 178.904 111.744 181.592C 111.744 182.168 111.84 182.648 112.032 183.032C 113.568 182.648 115.968 181.016 119.232 178.136C 119.616 177.752 120.672 176.888 122.4 175.544C 124.128 174.2 125.472 173.528 126.432 173.528L 126.432 165.464C 124.128 166.424 120.864 168.344 116.64 171.224C 112.608 173.912 110.592 175.448 110.592 175.832L 119.52 175.832ZM 124.704 189.944C 123.168 192.44 120.96 194.072 118.08 194.84C 116.352 195.608 115.104 196.472 114.336 197.432C 113.568 198.392 113.184 200.12 113.184 202.616C 117.408 202.616 121.248 200.312 124.704 195.704C 128.352 190.904 130.176 186.392 130.176 182.168C 130.176 180.632 129.984 179.48 129.6 178.712C 129.408 177.944 128.736 177.56 127.584 177.56C 125.088 177.56 121.824 179.288 117.792 182.744C 113.952 186.008 112.032 188.408 112.032 189.944C 112.032 190.328 112.224 190.712 112.608 191.096C 113.184 191.48 113.664 191.672 114.048 191.672C 114.816 191.672 116.256 191.384 118.368 190.808C 120.48 190.232 122.592 189.944 124.704 189.944ZM 40.032 182.456C 38.112 182.648 36.288 183.512 34.56 185.048C 33.024 186.392 32.256 188.024 32.256 189.944L 32.544 191.672C 35.616 191.288 37.632 190.52 38.592 189.368C 39.552 188.024 40.032 185.72 40.032 182.456ZM 220.608 184.472C 216.192 187.352 210.912 192.152 204.768 198.872C 209.376 198.872 213.408 198.2 216.864 196.856C 220.512 195.32 222.336 193.016 222.336 189.944C 222.336 189.752 221.76 187.928 220.608 184.472ZM 201.024 190.808C 201.024 191.576 201.312 192.248 201.888 192.824C 202.464 193.4 202.944 193.688 203.328 193.688C 204.288 193.688 207.072 191.384 211.68 186.776L 209.952 186.776C 207.84 186.776 205.824 187.064 203.904 187.64C 201.984 188.216 201.024 189.272 201.024 190.808ZM 130.176 196.568C 127.872 196.568 125.856 197.432 124.128 199.16C 122.4 200.696 120.288 203 117.792 206.072L 130.176 206.072L 130.176 196.568ZM 215.424 202.616C 214.08 203.384 212.352 204.632 210.24 206.36C 208.32 207.896 207.072 208.952 206.496 209.528L 208.224 209.528C 209.952 209.528 212.832 208.664 216.864 206.936C 221.088 205.208 223.2 203.96 223.2 203.192C 223.2 201.848 222.72 200.792 221.76 200.024C 220.8 199.256 219.552 198.872 218.016 198.872C 216.48 198.872 213.792 199.448 209.952 200.6C 206.304 201.752 204.48 203.576 204.48 206.072L 204.768 208.088C 206.688 205.784 208.224 204.248 209.376 203.48C 210.528 202.52 211.968 202.04 213.696 202.04L 215.424 202.616ZM 31.68 200.888C 29.952 200.888 28.512 201.368 27.36 202.328C 26.208 203.288 25.536 204.536 25.344 206.072L 26.208 206.36C 26.784 206.36 28.896 204.536 32.544 200.888L 31.68 200.888ZM 205.92 225.656C 205.92 228.92 206.496 232.088 207.648 235.16C 208.608 238.424 209.088 241.304 209.088 243.8C 218.112 243.8 222.624 241.016 222.624 235.448C 222.624 234.104 221.952 233.24 220.608 232.856C 221.952 232.472 222.624 231.32 222.624 229.4C 222.624 228.248 222.24 226.712 221.472 224.792C 220.896 222.68 220.608 221.144 220.608 220.184C 220.8 219.992 221.088 219.704 221.472 219.32C 221.856 218.936 222.144 218.648 222.336 218.456C 222.528 217.112 222.72 215.288 222.912 212.984C 223.104 210.488 223.2 208.472 223.2 206.936C 220.512 206.936 217.632 207.704 214.56 209.24C 211.68 210.584 208.416 212.408 204.768 214.712C 204.768 216.824 205.248 218.936 206.208 221.048C 207.168 222.968 207.648 224.504 207.648 225.656L 205.92 225.656ZM 112.032 221.336C 112.032 221.72 112.224 222.2 112.608 222.776C 112.992 223.352 113.472 223.64 114.048 223.64L 128.448 209.528C 121.536 209.528 117.024 210.488 114.912 212.408C 112.992 214.328 112.032 217.304 112.032 221.336ZM 112.032 232.856C 116.832 232.664 121.152 230.744 124.992 227.096C 128.832 223.256 130.752 219.032 130.752 214.424C 128.256 214.424 126.144 215.192 124.416 216.728C 122.88 218.072 121.248 220.088 119.52 222.776L 124.704 222.776C 124.704 224.12 123.552 225.272 121.248 226.232C 119.136 227.192 116.064 228.248 112.032 229.4L 112.032 232.856ZM 21.6 220.184C 21.6 220.76 21.792 221.432 22.176 222.2C 22.752 222.968 23.232 223.448 23.616 223.64C 26.112 222.104 27.84 219.8 28.8 216.728C 28.224 216.92 26.88 217.4 24.768 218.168C 22.656 218.744 21.6 219.416 21.6 220.184ZM 37.728 220.184C 37.536 220.376 36.768 221.048 35.424 222.2C 34.08 223.16 33.408 224.408 33.408 225.944C 36.48 225.944 38.016 224.696 38.016 222.2L 37.728 220.184ZM 122.976 241.496L 122.976 238.04L 126.72 238.04C 126.72 238.616 126.624 239.096 126.432 239.48C 126.24 239.672 126.144 239.864 126.144 240.056C 126.144 240.44 126.912 240.92 128.448 241.496L 130.176 239.768L 130.176 227.384C 127.488 228.92 124.704 230.36 121.824 231.704C 121.056 232.088 119.52 232.856 117.216 234.008C 115.104 235.16 114.048 236.12 114.048 236.888C 114.048 238.04 114.336 238.808 114.912 239.192C 115.488 239.384 115.872 239.576 116.064 239.768L 114.048 241.496L 122.976 241.496ZM 23.616 240.632C 25.152 240.632 26.88 239.096 28.8 236.024L 23.616 236.024L 23.616 240.632ZM 28.8 244.952L 36 244.952L 36 239.768L 28.8 244.952ZM 270.076 67.832C 270.076 63.608 271.996 60.824 275.836 59.48C 279.677 58.136 284.285 57.464 289.66 57.464L 290.812 57.464C 294.652 57.464 296.668 58.232 296.86 59.768C 298.012 72.44 298.588 79.544 298.588 81.08C 298.588 85.304 297.628 87.992 295.709 89.144C 293.789 90.104 291.676 90.584 289.372 90.584C 287.069 90.392 285.533 90.296 284.765 90.296C 280.732 90.296 277.468 89.816 274.973 88.856C 272.668 87.896 271.132 85.784 270.365 82.52L 270.076 67.832ZM 275.548 64.376C 275.548 68.408 276.124 71 277.277 72.152L 282.749 66.68C 282.365 65.144 279.964 64.376 275.548 64.376ZM 280.733 76.76C 280.733 78.872 281.501 80.216 283.036 80.792C 284.764 81.368 286.973 81.656 289.66 81.656L 289.66 66.104C 287.356 66.104 285.244 67.256 283.324 69.56C 281.597 71.864 280.733 74.264 280.733 76.76ZM 253.084 288.44C 253.468 288.44 254.14 288.824 255.101 289.592C 256.253 290.36 257.213 290.744 257.98 290.744C 259.133 290.744 260.093 290.36 260.86 289.592C 261.629 288.824 262.493 287.576 263.452 285.848C 265.756 282.392 268.061 279.704 270.365 277.784L 269.213 246.392L 268.348 118.232C 268.348 115.736 272.764 114.488 281.597 114.488L 295.133 114.776C 297.436 116.696 298.876 119 299.453 121.688C 300.22 124.376 300.604 127.64 300.604 131.48C 300.604 142.04 300.124 151.448 299.164 159.704C 298.78 163.544 298.588 166.232 298.588 167.768C 298.78 168.344 299.068 169.016 299.453 169.784C 299.837 170.552 300.125 171.128 300.317 171.512C 300.317 172.664 300.221 173.432 300.029 173.816C 299.837 174.2 299.357 174.584 298.588 174.968L 298.588 214.136C 299.932 214.52 300.604 215.672 300.604 217.592C 300.604 219.704 299.932 220.952 298.588 221.336C 299.357 224.216 300.413 229.592 301.757 237.464C 303.293 245.144 304.061 249.848 304.061 251.576L 302.045 253.016C 302.045 254.36 302.429 256.472 303.196 259.352C 303.965 262.232 304.349 266.936 304.349 273.464C 304.349 276.152 303.773 278.744 302.62 281.24C 301.66 283.736 299.164 287.96 295.133 293.912C 294.94 293.72 293.212 295.16 289.949 298.232C 283.996 304.184 279.772 307.544 277.277 308.312C 274.589 309.272 271.421 310.136 267.773 310.904C 264.125 311.672 261.053 312.056 258.557 312.056C 253.372 312.056 250.78 310.232 250.78 306.584L 250.78 290.744C 250.78 290.168 251.068 289.592 251.645 289.016C 252.22 288.632 252.7 288.44 253.084 288.44ZM 289.085 123.416C 287.357 123.416 285.245 123.608 282.749 123.992C 280.445 124.376 278.621 124.76 277.277 125.144L 277.277 132.632C 280.54 132.632 283.996 132.344 287.645 131.768C 291.485 131 293.405 129.848 293.405 128.312C 293.405 126.584 293.117 125.336 292.54 124.568C 291.965 123.8 290.813 123.416 289.085 123.416ZM 285.34 134.072C 282.077 134.072 279.581 134.648 277.852 135.8C 276.316 136.76 275.548 138.68 275.548 141.56C 279.581 141.56 283.805 139.16 288.22 134.36L 285.34 134.072ZM 293.405 135.512C 291.293 135.512 288.317 137.048 284.477 140.12C 280.828 143 279.004 145.112 279.004 146.456L 279.004 148.472C 279.58 148.28 282.076 147.8 286.492 147.032C 291.101 146.072 293.405 145.4 293.405 145.016L 293.405 135.512ZM 277.277 173.24C 277.277 173.816 277.565 174.584 278.141 175.544C 278.716 176.312 279.004 176.792 279.004 176.984C 279.772 176.408 280.637 175.544 281.597 174.392C 282.556 173.048 283.324 171.992 283.901 171.224C 285.629 168.728 287.164 166.808 288.508 165.464C 289.852 163.928 291.484 163.064 293.405 162.872L 293.405 151.928L 288.22 151.928L 288.22 149.912C 286.685 149.912 284.477 150.392 281.597 151.352C 278.717 152.12 277.277 152.888 277.277 153.656L 279.004 159.128C 279.772 158.552 280.732 157.88 281.884 157.112C 283.229 156.344 284.189 155.864 284.765 155.672C 285.724 155.672 286.204 156.248 286.204 157.4C 285.436 158.36 284.284 159.704 282.749 161.432C 281.405 162.968 280.157 164.216 279.004 165.176L 286.204 165.176C 283.516 165.176 281.309 165.944 279.581 167.48C 278.045 168.824 277.277 170.744 277.277 173.24ZM 277.277 191.672C 277.277 193.976 277.565 195.704 278.141 196.856C 278.909 197.816 280.349 198.296 282.461 198.296C 286.492 198.296 289.276 197.528 290.812 195.992C 292.541 194.456 293.405 191.576 293.405 187.352C 292.061 187.352 290.525 187.832 288.797 188.792C 287.26 189.752 285.82 190.808 284.477 191.96C 283.133 193.112 281.885 194.072 280.733 194.84C 280.733 193.688 281.117 192.632 281.884 191.672C 282.652 190.712 283.516 189.848 284.477 189.08C 286.781 187.16 288.509 185.24 289.66 183.32C 291.005 181.4 291.677 178.616 291.677 174.968L 291.677 167.768C 285.148 173.72 280.924 178.52 279.004 182.168C 283.996 181.016 287.548 180.44 289.66 180.44C 281.405 184.28 277.277 188.024 277.277 191.672ZM 275.548 206.936C 275.548 209.24 275.932 211.352 276.7 213.272C 277.66 215.192 279.005 216.152 280.733 216.152C 282.077 216.152 284.285 215.672 287.356 214.712C 290.428 213.56 291.964 211.928 291.964 209.816C 291.964 206.744 291.1 205.208 289.372 205.208L 288.22 205.496C 289.565 204.152 290.717 202.328 291.677 200.024L 289.66 200.024C 286.78 200.024 283.708 200.6 280.445 201.752C 277.18 202.712 275.548 204.44 275.548 206.936ZM 286.204 208.664C 284.477 210.584 282.653 211.832 280.733 212.408C 280.924 212.216 281.5 211.544 282.461 210.392C 283.612 209.24 284.572 208.664 285.34 208.664L 286.204 208.664ZM 291.964 215.576C 291.388 215.768 288.797 216.632 284.188 218.168C 279.581 219.704 277.277 220.76 277.277 221.336L 277.277 230.84C 279.772 230.84 282.844 229.016 286.492 225.368C 290.14 221.72 291.964 218.456 291.964 215.576ZM 255.965 300.248C 255.773 300.248 255.677 300.248 255.677 300.248C 255.677 300.44 255.677 300.536 255.677 300.536C 255.869 301.112 256.253 301.784 256.829 302.552C 257.404 303.512 257.692 304.28 257.692 304.856C 258.076 304.472 258.749 303.704 259.709 302.552C 260.669 301.4 261.533 300.824 262.301 300.824C 262.876 300.824 263.836 301.496 265.18 302.84C 272.477 301.496 279.581 298.904 286.492 295.064C 293.404 291.416 296.86 286.424 296.86 280.088C 296.86 279.32 296.38 278.744 295.421 278.36C 294.652 277.976 293.98 277.784 293.405 277.784C 296.477 277.208 298.013 272.888 298.013 264.824L 298.013 263.096C 296.285 263.288 294.845 263.672 293.693 264.248C 292.732 264.824 291.388 265.88 289.66 267.416C 291.005 265.88 292.541 263.768 294.268 261.08C 295.996 258.584 296.86 257.144 296.86 256.76C 296.86 255.8 296.668 254.456 296.284 252.728C 295.901 251 295.517 249.944 295.133 249.56L 294.268 249.272C 292.924 249.272 291.388 250.232 289.66 252.152C 287.933 254.072 286.205 255.032 284.477 255.032L 295.133 244.376C 295.133 239 295.036 234.968 294.844 232.28C 294.652 229.4 293.884 226.232 292.54 222.776C 291.005 222.776 289.373 223.64 287.645 225.368C 285.916 227.096 283.804 229.496 281.309 232.568C 278.813 235.64 277.469 237.176 277.277 237.176L 282.749 237.176L 277.277 242.36L 278.141 242.648C 279.869 242.648 281.117 242.264 281.884 241.496C 282.844 240.728 283.805 239.576 284.765 238.04C 285.533 236.504 286.205 235.448 286.781 234.872C 287.357 234.296 288.316 233.912 289.66 233.72L 289.66 237.176L 279.004 248.12L 279.004 249.56C 280.733 249.56 282.461 249.368 284.188 248.984C 286.109 248.408 287.453 248.12 288.22 248.12C 287.644 248.696 286.492 249.464 284.765 250.424C 283.229 251.384 281.885 252.248 280.733 253.016C 279.581 253.976 279.004 254.936 279.004 255.896C 279.004 257.048 279.388 258.392 280.156 259.928C 280.924 261.656 281.309 263 281.309 263.96L 284.477 263.96C 283.133 264.536 281.98 265.496 281.02 266.84C 280.252 268.184 279.868 269.528 279.868 270.872L 284.477 270.872C 282.172 272.984 279.964 276.152 277.852 280.376C 276.701 282.872 275.357 284.984 273.82 286.712C 272.477 288.44 270.077 290.36 266.621 292.472C 264.701 293.624 262.396 295.064 259.709 296.792C 257.213 298.52 255.965 299.672 255.965 300.248ZM 381.879 115.352C 384.183 115.352 385.335 116.12 385.335 117.656C 385.335 118.232 384.855 119.96 383.895 122.84C 383.127 125.72 382.647 127.736 382.455 128.888L 389.079 122.264C 396.567 117.464 403.575 113.528 410.103 110.456C 416.631 107.384 423.063 105.848 429.399 105.848C 429.975 106.616 430.263 108.92 430.263 112.76C 430.263 114.68 430.071 117.752 429.687 121.976C 429.303 126.584 429.111 130.232 429.111 132.92C 429.111 134.072 429.303 135.608 429.687 137.528C 429.687 137.912 428.919 138.392 427.383 138.968C 425.847 139.352 424.695 139.64 423.927 139.832C 414.711 142.52 406.839 145.688 400.311 149.336C 393.783 152.984 390.039 158.168 389.079 164.888L 387.927 171.224C 386.007 181.784 385.047 188.312 385.047 190.808C 385.047 196.76 385.719 203.96 387.063 212.408C 387.255 213.752 387.639 216.92 388.215 221.912C 388.791 226.712 389.079 231.224 389.079 235.448C 389.079 236.6 388.887 238.424 388.503 240.92C 388.119 243.416 387.735 245.816 387.351 248.12L 389.079 250.136C 388.887 251.288 386.391 252.152 381.591 252.728C 376.791 253.496 373.335 253.88 371.223 253.88L 370.359 253.88C 369.591 253.88 369.015 253.688 368.631 253.304C 368.247 253.112 367.959 252.632 367.767 251.864C 367.191 253.208 366.039 254.168 364.311 254.744C 362.775 255.32 361.239 255.608 359.703 255.608C 358.743 255.416 357.591 255.128 356.247 254.744C 355.095 254.552 354.231 254.264 353.655 253.88L 351.639 235.736L 351.639 115.352L 381.879 115.352ZM 410.103 123.128C 413.175 123.128 414.711 125.24 414.711 129.464C 414.711 130.808 414.615 132.056 414.423 133.208C 414.231 134.168 414.135 135.128 414.135 136.088C 416.823 135.128 418.935 133.496 420.471 131.192C 422.199 128.888 423.063 126.2 423.063 123.128C 423.063 121.592 421.719 119.864 419.031 117.944C 416.343 115.832 414.999 114.392 414.999 113.624C 414.999 113.432 415.191 113.144 415.575 112.76C 413.079 115.256 411.831 116.6 411.831 116.792L 412.119 118.232C 410.775 119.576 408.759 120.824 406.071 121.976C 403.383 123.128 401.367 124.376 400.023 125.72C 398.679 127.064 398.007 129.272 398.007 132.344C 399.159 132.152 400.215 131.576 401.175 130.616C 402.327 129.464 403.287 128.408 404.055 127.448C 406.167 124.568 408.183 123.128 410.103 123.128ZM 374.103 130.328C 374.103 135.128 370.743 141.368 364.023 149.048C 366.711 148.088 369.495 146.84 372.375 145.304C 375.255 143.576 376.695 142.328 376.695 141.56L 376.695 123.992C 374.967 123.608 372.279 123.224 368.631 122.84C 364.983 122.456 362.295 122.168 360.567 121.976L 360.567 127.736L 361.719 127.736C 361.719 129.08 361.431 130.424 360.855 131.768C 360.471 133.112 360.279 134.36 360.279 135.512C 363.543 135.512 366.615 134.072 369.495 131.192L 360.567 140.12L 360.567 143.864C 360.951 143.48 363.063 141.176 366.903 136.952C 370.935 132.536 373.335 130.328 374.103 130.328ZM 364.023 182.744C 366.327 182.552 369.111 181.88 372.375 180.728C 375.639 179.384 377.655 178.328 378.423 177.56C 379.191 173.912 379.671 171.512 379.863 170.36C 382.167 160.376 384.087 152.792 385.623 147.608C 387.159 142.424 389.559 136.952 392.823 131.192C 387.639 135.416 382.263 140.696 376.695 147.032C 371.319 153.368 367.095 159.32 364.023 164.888L 365.175 164.888L 378.423 161.432L 378.423 162.872L 364.023 180.728L 364.023 182.744ZM 397.143 142.424C 399.255 142.424 400.983 141.848 402.327 140.696C 403.671 139.352 404.343 137.72 404.343 135.8L 404.055 133.208L 395.415 142.136L 397.143 142.424ZM 367.767 152.504C 364.695 152.504 362.679 153.08 361.719 154.232C 360.759 155.384 360.279 157.208 360.279 159.704L 360.567 162.872L 367.767 152.504ZM 366.039 170.072C 361.623 170.072 359.415 172.568 359.415 177.56L 362.295 177.56L 367.767 170.072L 366.039 170.072ZM 372.087 184.472C 369.207 184.856 366.519 185.432 364.023 186.2C 361.719 186.968 360.567 187.544 360.567 187.928L 360.567 198.872L 372.951 184.472L 372.087 184.472ZM 362.295 204.056C 363.063 205.016 364.023 205.496 365.175 205.496C 368.439 205.496 371.415 204.44 374.103 202.328C 376.983 200.216 378.423 197.624 378.423 194.552L 378.423 192.536C 378.423 189.656 377.847 187.544 376.695 186.2C 375.927 187.352 373.815 189.848 370.359 193.688C 367.095 197.528 364.407 200.984 362.295 204.056ZM 358.839 216.44C 358.839 216.632 359.415 218.456 360.567 221.912C 361.527 220.952 363.159 219.416 365.463 217.304C 367.767 215 369.591 213.08 370.935 211.544C 372.279 209.816 372.951 208.472 372.951 207.512L 371.511 207.224C 368.055 207.224 365.079 207.992 362.583 209.528C 360.087 210.872 358.839 213.176 358.839 216.44ZM 378.423 207.512C 378.231 207.896 376.311 210.392 372.663 215C 369.975 217.88 367.767 220.76 366.039 223.64C 371.607 223.64 375.351 223.064 377.271 221.912C 379.191 220.568 380.151 217.496 380.151 212.696C 380.151 210.392 379.575 208.664 378.423 207.512ZM 360.567 232.568C 360.567 233.528 360.759 234.776 361.143 236.312C 361.527 237.656 361.911 238.808 362.295 239.768C 364.983 238.424 367.479 236.408 369.783 233.72C 372.087 231.032 373.719 228.248 374.679 225.368C 373.719 225.944 372.759 226.424 371.799 226.808C 370.839 227 369.975 227.288 369.207 227.672C 363.447 229.976 360.567 231.608 360.567 232.568ZM 380.151 226.808C 375.735 231.032 372.183 235.352 369.495 239.768L 371.511 239.768C 372.471 239.768 374.391 239.192 377.271 238.04C 380.343 236.888 381.879 236.12 381.879 235.736L 380.151 226.808ZM 381.879 240.92C 379.191 240.92 376.311 241.4 373.239 242.36C 370.359 243.32 368.535 244.76 367.767 246.68L 371.511 246.68C 378.423 246.68 381.879 245.528 381.879 243.224L 381.879 240.92Z" transform="translate(254 -57)" fill="#F15EB4"/>
</g>
</g>
</g>
</svg>

